<svg width="133" height="117" viewBox="0 0 133 117" fill="none" xmlns="http://www.w3.org/2000/svg">
<path d="M51.1875 24.375H48.875C48.25 20.5417 46.8542 17.7708 44.6875 16.0625C42.5208 14.3125 39.5417 13.4375 35.75 13.4375C33.0417 13.4375 30.5417 13.9583 28.25 15C25.9583 16 23.9583 17.4167 22.25 19.25C20.5833 21.0833 19.2708 23.2917 18.3125 25.875C17.3542 28.4167 16.875 31.2292 16.875 34.3125C16.875 37.7292 17.3958 40.8333 18.4375 43.625C19.4792 46.4167 20.8958 48.8125 22.6875 50.8125C24.4792 52.7708 26.5833 54.2917 29 55.375C31.4583 56.4583 34.0625 57 36.8125 57C40.1875 57 42.875 55.9375 44.875 53.8125C46.875 51.6458 48.1875 48.9167 48.8125 45.625H51.375L49.625 56.3125C48.9167 56.7708 48 57.2083 46.875 57.625C45.75 58.0417 44.5417 58.3958 43.25 58.6875C41.9167 59.0208 40.5833 59.2708 39.25 59.4375C37.9167 59.6042 36.7083 59.6875 35.625 59.6875C31.9167 59.6875 28.5417 59.1042 25.5 57.9375C22.4583 56.7292 19.8333 55.0208 17.625 52.8125C15.4167 50.6042 13.7083 47.9583 12.5 44.875C11.2917 41.7917 10.6875 38.3333 10.6875 34.5C10.6875 31.0417 11.375 27.8542 12.75 24.9375C14.1667 22.0208 16.0208 19.5 18.3125 17.375C20.6458 15.25 23.2917 13.6042 26.25 12.4375C29.2083 11.2292 32.2708 10.625 35.4375 10.625C38.0625 10.625 40.6667 11 43.25 11.75C45.875 12.4583 48.2917 13.25 50.5 14.125L51.1875 24.375Z" fill="black"/>
<line y1="67.5" x2="66" y2="67.5" stroke="#D9D233" stroke-width="15"/>
<path d="M122.379 68.9375C122.379 72.0208 121.816 75.0625 120.691 78.0625C119.566 81.0208 117.983 83.6458 115.941 85.9375C113.9 88.2708 111.441 90.1458 108.566 91.5625C105.733 92.9792 102.566 93.6875 99.0663 93.6875C95.858 93.6875 92.8371 93.0417 90.0038 91.75C87.1705 90.4167 84.7121 88.6458 82.6288 86.4375C80.5038 84.2292 78.8371 81.6667 77.6288 78.75C76.4205 75.7917 75.8163 72.6875 75.8163 69.4375C75.8163 66.3542 76.3788 63.3333 77.5038 60.375C78.6288 57.4167 80.2121 54.7708 82.2538 52.4375C84.2955 50.1042 86.7538 48.2292 89.6288 46.8125C92.5455 45.3542 95.7538 44.625 99.2538 44.625C102.42 44.625 105.4 45.2917 108.191 46.625C111.025 47.9583 113.483 49.7292 115.566 51.9375C117.691 54.1875 119.358 56.7917 120.566 59.75C121.775 62.6667 122.379 65.7292 122.379 68.9375ZM115.816 70.8125C115.816 68.3542 115.462 65.7708 114.754 63.0625C114.045 60.3125 112.962 57.7708 111.504 55.4375C110.087 53.1458 108.275 51.25 106.066 49.75C103.9 48.2083 101.358 47.4375 98.4413 47.4375C96.0663 47.4375 93.8788 47.9375 91.8788 48.9375C89.9205 49.9375 88.233 51.3125 86.8163 53.0625C85.358 54.8542 84.233 56.9792 83.4413 59.4375C82.6913 61.8958 82.3163 64.5833 82.3163 67.5C82.3163 70 82.6705 72.6458 83.3788 75.4375C84.0871 78.1875 85.1705 80.7083 86.6288 83C88.0871 85.3333 89.8996 87.25 92.0663 88.75C94.2746 90.25 96.858 91 99.8163 91C102.316 91 104.545 90.5208 106.504 89.5625C108.504 88.5625 110.191 87.1667 111.566 85.375C112.941 83.5833 113.983 81.4583 114.691 79C115.441 76.5 115.816 73.7708 115.816 70.8125Z" fill="black"/>
<line x1="66" y1="101" x2="132.008" y2="101" stroke="#D9D233" stroke-width="15"/>
</svg>
