<svg width="491" height="175" viewBox="0 0 491 175" fill="none" xmlns="http://www.w3.org/2000/svg">
<path d="M45.1875 24.375H42.875C42.25 20.5417 40.8542 17.7708 38.6875 16.0625C36.5208 14.3125 33.5417 13.4375 29.75 13.4375C27.0417 13.4375 24.5417 13.9583 22.25 15C19.9583 16 17.9583 17.4167 16.25 19.25C14.5833 21.0833 13.2708 23.2917 12.3125 25.875C11.3542 28.4167 10.875 31.2292 10.875 34.3125C10.875 37.7292 11.3958 40.8333 12.4375 43.625C13.4792 46.4167 14.8958 48.8125 16.6875 50.8125C18.4792 52.7708 20.5833 54.2917 23 55.375C25.4583 56.4583 28.0625 57 30.8125 57C34.1875 57 36.875 55.9375 38.875 53.8125C40.875 51.6458 42.1875 48.9167 42.8125 45.625H45.375L43.625 56.3125C42.9167 56.7708 42 57.2083 40.875 57.625C39.75 58.0417 38.5417 58.3958 37.25 58.6875C35.9167 59.0208 34.5833 59.2708 33.25 59.4375C31.9167 59.6042 30.7083 59.6875 29.625 59.6875C25.9167 59.6875 22.5417 59.1042 19.5 57.9375C16.4583 56.7292 13.8333 55.0208 11.625 52.8125C9.41667 50.6042 7.70833 47.9583 6.5 44.875C5.29167 41.7917 4.6875 38.3333 4.6875 34.5C4.6875 31.0417 5.375 27.8542 6.75 24.9375C8.16667 22.0208 10.0208 19.5 12.3125 17.375C14.6458 15.25 17.2917 13.6042 20.25 12.4375C23.2083 11.2292 26.2708 10.625 29.4375 10.625C32.0625 10.625 34.6667 11 37.25 11.75C39.875 12.4583 42.2917 13.25 44.5 14.125L45.1875 24.375ZM97.9375 34.9375C97.9375 38.0208 97.375 41.0625 96.25 44.0625C95.125 47.0208 93.5417 49.6458 91.5 51.9375C89.4583 54.2708 87 56.1458 84.125 57.5625C81.2917 58.9792 78.125 59.6875 74.625 59.6875C71.4167 59.6875 68.3958 59.0417 65.5625 57.75C62.7292 56.4167 60.2708 54.6458 58.1875 52.4375C56.0625 50.2292 54.3958 47.6667 53.1875 44.75C51.9792 41.7917 51.375 38.6875 51.375 35.4375C51.375 32.3542 51.9375 29.3333 53.0625 26.375C54.1875 23.4167 55.7708 20.7708 57.8125 18.4375C59.8542 16.1042 62.3125 14.2292 65.1875 12.8125C68.1042 11.3542 71.3125 10.625 74.8125 10.625C77.9792 10.625 80.9583 11.2917 83.75 12.625C86.5833 13.9583 89.0417 15.7292 91.125 17.9375C93.25 20.1875 94.9167 22.7917 96.125 25.75C97.3333 28.6667 97.9375 31.7292 97.9375 34.9375ZM91.375 36.8125C91.375 34.3542 91.0208 31.7708 90.3125 29.0625C89.6042 26.3125 88.5208 23.7708 87.0625 21.4375C85.6458 19.1458 83.8333 17.25 81.625 15.75C79.4583 14.2083 76.9167 13.4375 74 13.4375C71.625 13.4375 69.4375 13.9375 67.4375 14.9375C65.4792 15.9375 63.7917 17.3125 62.375 19.0625C60.9167 20.8542 59.7917 22.9792 59 25.4375C58.25 27.8958 57.875 30.5833 57.875 33.5C57.875 36 58.2292 38.6458 58.9375 41.4375C59.6458 44.1875 60.7292 46.7083 62.1875 49C63.6458 51.3333 65.4583 53.25 67.625 54.75C69.8333 56.25 72.4167 57 75.375 57C77.875 57 80.1042 56.5208 82.0625 55.5625C84.0625 54.5625 85.75 53.1667 87.125 51.375C88.5 49.5833 89.5417 47.4583 90.25 45C91 42.5 91.375 39.7708 91.375 36.8125ZM148.688 59.3125H145.812L114.375 20.375V50.0625C114.375 51.5208 114.438 52.6667 114.562 53.5C114.729 54.3333 115.042 54.9583 115.5 55.375C115.917 55.8333 116.521 56.125 117.312 56.25C118.104 56.3333 119.146 56.375 120.438 56.375V58.625C119.396 58.625 118.125 58.625 116.625 58.625C115.167 58.5833 113.646 58.5625 112.062 58.5625C110.479 58.5625 108.938 58.5833 107.438 58.625C105.979 58.625 104.75 58.6458 103.75 58.6875V56.375C105.125 56.375 106.25 56.3125 107.125 56.1875C108.042 56.0625 108.75 55.7917 109.25 55.375C109.792 54.9167 110.167 54.2917 110.375 53.5C110.583 52.6667 110.688 51.5417 110.688 50.125V20C110.688 17.625 110.083 16.0417 108.875 15.25C107.667 14.4167 105.583 14 102.625 14V11.6875C103.125 11.7708 103.875 11.8125 104.875 11.8125C105.875 11.8125 106.917 11.8125 108 11.8125C109.083 11.8125 110.104 11.8125 111.062 11.8125C112.021 11.7708 112.729 11.7292 113.188 11.6875L144.875 50V19.9375C144.875 18.6875 144.792 17.6875 144.625 16.9375C144.5 16.1458 144.208 15.5417 143.75 15.125C143.333 14.7083 142.708 14.4375 141.875 14.3125C141.083 14.1458 140.021 14.0417 138.688 14V11.625C139.479 11.6667 140.625 11.7083 142.125 11.75C143.625 11.75 145.188 11.75 146.812 11.75C148.438 11.75 149.979 11.75 151.438 11.75C152.938 11.7083 154.062 11.6667 154.812 11.625V14C153.396 14 152.271 14.0625 151.438 14.1875C150.646 14.3125 150.042 14.5833 149.625 15C149.208 15.375 148.938 15.9583 148.812 16.75C148.729 17.5417 148.688 18.6042 148.688 19.9375V59.3125ZM199.875 24.375H197.562C196.938 20.5417 195.542 17.7708 193.375 16.0625C191.208 14.3125 188.229 13.4375 184.438 13.4375C181.729 13.4375 179.229 13.9583 176.938 15C174.646 16 172.646 17.4167 170.938 19.25C169.271 21.0833 167.958 23.2917 167 25.875C166.042 28.4167 165.562 31.2292 165.562 34.3125C165.562 37.7292 166.083 40.8333 167.125 43.625C168.167 46.4167 169.583 48.8125 171.375 50.8125C173.167 52.7708 175.271 54.2917 177.688 55.375C180.146 56.4583 182.75 57 185.5 57C188.875 57 191.562 55.9375 193.562 53.8125C195.562 51.6458 196.875 48.9167 197.5 45.625H200.062L198.312 56.3125C197.604 56.7708 196.688 57.2083 195.562 57.625C194.438 58.0417 193.229 58.3958 191.938 58.6875C190.604 59.0208 189.271 59.2708 187.938 59.4375C186.604 59.6042 185.396 59.6875 184.312 59.6875C180.604 59.6875 177.229 59.1042 174.188 57.9375C171.146 56.7292 168.521 55.0208 166.312 52.8125C164.104 50.6042 162.396 47.9583 161.188 44.875C159.979 41.7917 159.375 38.3333 159.375 34.5C159.375 31.0417 160.062 27.8542 161.438 24.9375C162.854 22.0208 164.708 19.5 167 17.375C169.333 15.25 171.979 13.6042 174.938 12.4375C177.896 11.2292 180.958 10.625 184.125 10.625C186.75 10.625 189.354 11 191.938 11.75C194.562 12.4583 196.979 13.25 199.188 14.125L199.875 24.375ZM216.25 36.75V50.0625C216.25 51.3542 216.312 52.4167 216.438 53.25C216.562 54.0417 216.833 54.6667 217.25 55.125C217.667 55.625 218.271 55.9583 219.062 56.125C219.896 56.2917 220.979 56.375 222.312 56.375V58.6875C221.479 58.6458 220.229 58.625 218.562 58.625C216.938 58.5833 215.208 58.5625 213.375 58.5625C211.583 58.5625 209.875 58.5833 208.25 58.625C206.625 58.625 205.417 58.6458 204.625 58.6875V56.4375C205.875 56.4375 206.896 56.375 207.688 56.25C208.479 56.125 209.083 55.8542 209.5 55.4375C209.917 54.9792 210.188 54.3333 210.312 53.5C210.479 52.6667 210.562 51.5208 210.562 50.0625V19.75C210.562 18.5 210.479 17.5 210.312 16.75C210.146 16 209.854 15.4167 209.438 15C209.021 14.625 208.417 14.375 207.625 14.25C206.875 14.125 205.875 14.0417 204.625 14V11.6875C205.625 11.7292 206.938 11.7708 208.562 11.8125C210.188 11.8125 211.875 11.8125 213.625 11.8125C215.417 11.8125 217.146 11.8125 218.812 11.8125C220.521 11.7708 221.938 11.7292 223.062 11.6875C226.021 11.6875 228.458 12.1042 230.375 12.9375C232.292 13.7292 233.792 14.7292 234.875 15.9375C235.958 17.1458 236.708 18.4583 237.125 19.875C237.583 21.25 237.812 22.5208 237.812 23.6875C237.812 25.1875 237.542 26.5833 237 27.875C236.5 29.1667 235.833 30.3125 235 31.3125C234.167 32.3125 233.208 33.1667 232.125 33.875C231.042 34.5833 229.917 35.1042 228.75 35.4375C229.5 36.7708 230.375 38.2292 231.375 39.8125C232.417 41.3542 233.479 42.875 234.562 44.375C235.604 45.9167 236.625 47.3542 237.625 48.6875C238.667 50.0208 239.583 51.1458 240.375 52.0625C241.25 53.1875 242.292 54.1875 243.5 55.0625C244.708 55.9375 246.188 56.375 247.938 56.375V58.6875C246.438 58.6042 244.729 58.5625 242.812 58.5625C240.896 58.5625 239.271 58.6042 237.938 58.6875C236.771 57.1458 235.542 55.4375 234.25 53.5625C232.958 51.6875 231.646 49.7708 230.312 47.8125C229.021 45.8542 227.75 43.9167 226.5 42C225.25 40.0833 224.125 38.3333 223.125 36.75H216.25ZM216.25 33.8125C216.25 33.8125 216.396 33.8333 216.688 33.875C216.979 33.875 217.312 33.875 217.688 33.875C218.104 33.9167 218.521 33.9375 218.938 33.9375C219.396 33.9375 219.792 33.9375 220.125 33.9375C222.25 33.9375 224.042 33.6458 225.5 33.0625C227 32.4792 228.208 31.7292 229.125 30.8125C230.042 29.8542 230.688 28.8125 231.062 27.6875C231.479 26.5208 231.688 25.3542 231.688 24.1875C231.688 21.3958 230.854 19.0625 229.188 17.1875C227.562 15.3125 224.688 14.375 220.562 14.375C219.604 14.375 218.792 14.3958 218.125 14.4375C217.5 14.4375 216.875 14.4792 216.25 14.5625V33.8125ZM262.75 32.6875H271.688C273.188 32.6875 274.229 32.3333 274.812 31.625C275.396 30.875 275.688 29.3125 275.688 26.9375H278.25V42.375H275.688C275.688 41 275.625 39.8958 275.5 39.0625C275.417 38.2292 275.229 37.5833 274.938 37.125C274.646 36.6667 274.229 36.375 273.688 36.25C273.146 36.0833 272.458 36 271.625 36H262.75V50.25C262.75 51.5 262.833 52.5 263 53.25C263.167 54 263.5 54.5833 264 55C264.542 55.4167 265.271 55.6875 266.188 55.8125C267.146 55.8958 268.396 55.9375 269.938 55.9375H274.562C276.146 55.9375 277.458 55.8333 278.5 55.625C279.583 55.375 280.479 54.9375 281.188 54.3125C281.938 53.7292 282.562 52.9167 283.062 51.875C283.604 50.7917 284.125 49.4167 284.625 47.75H287.375C286.833 49.4583 286.271 51.2917 285.688 53.25C285.146 55.1667 284.688 56.9583 284.312 58.625C281.646 58.5833 278.875 58.5625 276 58.5625C273.125 58.5208 270.229 58.5 267.312 58.5C264.438 58.5 261.604 58.5208 258.812 58.5625C256.021 58.5625 253.375 58.5833 250.875 58.625V56.375C252.167 56.375 253.208 56.2917 254 56.125C254.833 55.9583 255.479 55.6458 255.938 55.1875C256.354 54.7708 256.646 54.1667 256.812 53.375C256.979 52.5417 257.062 51.5 257.062 50.25V19.625C257.062 18.375 256.979 17.3958 256.812 16.6875C256.646 15.9375 256.354 15.375 255.938 15C255.479 14.625 254.833 14.375 254 14.25C253.208 14.125 252.167 14.0625 250.875 14.0625V11.75C253.292 11.8333 255.854 11.8958 258.562 11.9375C261.271 11.9375 264 11.9375 266.75 11.9375C269.5 11.9375 272.208 11.9375 274.875 11.9375C277.542 11.8958 280.042 11.8333 282.375 11.75V22.375H279.875C279.667 20.625 279.417 19.2292 279.125 18.1875C278.875 17.1458 278.438 16.3333 277.812 15.75C277.229 15.2083 276.417 14.8542 275.375 14.6875C274.333 14.4792 272.979 14.375 271.312 14.375H262.75V32.6875ZM329.25 20.9375H326.562C326.521 19.7708 326.438 18.7917 326.312 18C326.188 17.2083 325.917 16.5833 325.5 16.125C325.125 15.625 324.562 15.2917 323.812 15.125C323.062 14.9167 322.042 14.8125 320.75 14.8125H312.25V50C312.25 51.375 312.312 52.4792 312.438 53.3125C312.604 54.1042 312.917 54.7292 313.375 55.1875C313.792 55.6458 314.396 55.9583 315.188 56.125C315.979 56.2917 317 56.375 318.25 56.375V58.625C317.208 58.625 315.896 58.625 314.312 58.625C312.729 58.5833 311.083 58.5625 309.375 58.5625C307.708 58.5625 306.083 58.5833 304.5 58.625C302.917 58.625 301.625 58.6458 300.625 58.6875V56.375C301.833 56.375 302.812 56.2917 303.562 56.125C304.354 55.9583 304.979 55.6458 305.438 55.1875C305.854 54.7292 306.146 54.1042 306.312 53.3125C306.479 52.4792 306.562 51.375 306.562 50V14.8125H299.375C298 14.8125 296.875 14.8958 296 15.0625C295.125 15.2292 294.417 15.5417 293.875 16C293.333 16.4167 292.896 17.0417 292.562 17.875C292.229 18.6667 291.917 19.6875 291.625 20.9375H288.875L289.75 11.625C292.375 11.75 295.438 11.8333 298.938 11.875C302.479 11.9167 306.083 11.9375 309.75 11.9375C313.417 11.9375 317 11.9167 320.5 11.875C324.042 11.8333 327.146 11.75 329.812 11.625L329.25 20.9375ZM376.812 14C375.646 14 374.708 14.0625 374 14.1875C373.333 14.2708 372.833 14.5 372.5 14.875C372.125 15.2917 371.896 15.875 371.812 16.625C371.729 17.375 371.688 18.3958 371.688 19.6875V43.5625C371.688 45.8958 371.312 48.0417 370.562 50C369.854 51.9583 368.771 53.6667 367.312 55.125C365.896 56.5417 364.125 57.6667 362 58.5C359.917 59.2917 357.5 59.6875 354.75 59.6875C349.5 59.6875 345.333 58.3333 342.25 55.625C339.208 52.875 337.646 48.6042 337.562 42.8125V19.875C337.562 18.5833 337.479 17.5625 337.312 16.8125C337.146 16.0208 336.854 15.4375 336.438 15.0625C335.979 14.6458 335.354 14.375 334.562 14.25C333.812 14.125 332.812 14.0417 331.562 14V11.625C332.312 11.7083 333.5 11.7708 335.125 11.8125C336.75 11.8125 338.479 11.8125 340.312 11.8125C342.104 11.8125 343.833 11.8125 345.5 11.8125C347.167 11.7708 348.417 11.7083 349.25 11.625V14C347.958 14.0417 346.917 14.125 346.125 14.25C345.375 14.375 344.771 14.6458 344.312 15.0625C343.896 15.4375 343.604 16.0208 343.438 16.8125C343.312 17.5625 343.25 18.5833 343.25 19.875V41.0625C343.25 46.4375 344.312 50.3333 346.438 52.75C348.562 55.1667 351.917 56.375 356.5 56.375C359.833 56.375 362.583 55.2083 364.75 52.875C366.958 50.5417 368.062 47.4375 368.062 43.5625V19.875C368.062 18.5417 368 17.5 367.875 16.75C367.792 16 367.562 15.4167 367.188 15C366.812 14.625 366.25 14.3958 365.5 14.3125C364.792 14.1875 363.812 14.1042 362.562 14.0625V11.625C363.229 11.7083 364.229 11.7708 365.562 11.8125C366.938 11.8125 368.375 11.8125 369.875 11.8125C371.333 11.8125 372.708 11.7917 374 11.75C375.292 11.7083 376.229 11.6458 376.812 11.5625V14ZM410.312 59.0625H408.125L391.062 22.125L390.562 50.125C390.562 52.4167 390.875 54.0208 391.5 54.9375C392.125 55.8542 393.5 56.3542 395.625 56.4375V58.625C394.625 58.625 393.375 58.625 391.875 58.625C390.417 58.5833 388.896 58.5625 387.312 58.5625C385.729 58.5625 384.188 58.5833 382.688 58.625C381.229 58.625 380 58.6458 379 58.6875V56.375C380.458 56.3333 381.667 56.25 382.625 56.125C383.583 55.9583 384.354 55.6458 384.938 55.1875C385.562 54.7708 386 54.1458 386.25 53.3125C386.542 52.4792 386.729 51.3542 386.812 49.9375L387.5 19.375C387.5 17.375 387.062 15.9792 386.188 15.1875C385.312 14.3958 383.812 14 381.688 14V11.625C382.354 11.7083 383.167 11.7708 384.125 11.8125C385.125 11.8125 386.125 11.8125 387.125 11.8125C388.125 11.8125 389.062 11.8125 389.938 11.8125C390.812 11.7708 391.479 11.7083 391.938 11.625L410.188 51.0625L427.938 11.6875C428.438 11.7708 429.188 11.8125 430.188 11.8125C431.229 11.8125 432.312 11.8125 433.438 11.8125C434.562 11.8125 435.625 11.7917 436.625 11.75C437.625 11.7083 438.354 11.6458 438.812 11.5625V14C436.479 14 434.917 14.4167 434.125 15.25C433.375 16.0833 433 17.4375 433 19.3125L433.688 49.9375C433.729 51.2708 433.833 52.3542 434 53.1875C434.208 54.0208 434.583 54.6667 435.125 55.125C435.625 55.625 436.333 55.9583 437.25 56.125C438.208 56.2917 439.479 56.375 441.062 56.375V58.625C440.062 58.625 438.646 58.625 436.812 58.625C435.021 58.625 433.125 58.625 431.125 58.625C429.125 58.625 427.208 58.625 425.375 58.625C423.542 58.625 422.167 58.625 421.25 58.625V56.375C422.667 56.375 423.812 56.2917 424.688 56.125C425.604 55.9583 426.312 55.6458 426.812 55.1875C427.271 54.7292 427.583 54.0833 427.75 53.25C427.958 52.4167 428.062 51.3125 428.062 49.9375L427.688 20.9375L410.312 59.0625ZM51.375 114.938C51.375 118.021 50.8125 121.062 49.6875 124.062C48.5625 127.021 46.9792 129.646 44.9375 131.938C42.8958 134.271 40.4375 136.146 37.5625 137.562C34.7292 138.979 31.5625 139.688 28.0625 139.688C24.8542 139.688 21.8333 139.042 19 137.75C16.1667 136.417 13.7083 134.646 11.625 132.438C9.5 130.229 7.83333 127.667 6.625 124.75C5.41667 121.792 4.8125 118.688 4.8125 115.438C4.8125 112.354 5.375 109.333 6.5 106.375C7.625 103.417 9.20833 100.771 11.25 98.4375C13.2917 96.1042 15.75 94.2292 18.625 92.8125C21.5417 91.3542 24.75 90.625 28.25 90.625C31.4167 90.625 34.3958 91.2917 37.1875 92.625C40.0208 93.9583 42.4792 95.7292 44.5625 97.9375C46.6875 100.188 48.3542 102.792 49.5625 105.75C50.7708 108.667 51.375 111.729 51.375 114.938ZM44.8125 116.812C44.8125 114.354 44.4583 111.771 43.75 109.062C43.0417 106.312 41.9583 103.771 40.5 101.438C39.0833 99.1458 37.2708 97.25 35.0625 95.75C32.8958 94.2083 30.3542 93.4375 27.4375 93.4375C25.0625 93.4375 22.875 93.9375 20.875 94.9375C18.9167 95.9375 17.2292 97.3125 15.8125 99.0625C14.3542 100.854 13.2292 102.979 12.4375 105.438C11.6875 107.896 11.3125 110.583 11.3125 113.5C11.3125 116 11.6667 118.646 12.375 121.438C13.0833 124.188 14.1667 126.708 15.625 129C17.0833 131.333 18.8958 133.25 21.0625 134.75C23.2708 136.25 25.8542 137 28.8125 137C31.3125 137 33.5417 136.521 35.5 135.562C37.5 134.562 39.1875 133.167 40.5625 131.375C41.9375 129.583 42.9792 127.458 43.6875 125C44.4375 122.5 44.8125 119.771 44.8125 116.812ZM68.375 130C68.375 131.417 68.4375 132.542 68.5625 133.375C68.7292 134.208 69.0208 134.854 69.4375 135.312C69.8958 135.729 70.5 136.021 71.25 136.188C72.0417 136.312 73.0833 136.375 74.375 136.375V138.625C73.25 138.625 71.9167 138.625 70.375 138.625C68.8333 138.583 67.2292 138.562 65.5625 138.562C63.8958 138.562 62.2708 138.583 60.6875 138.625C59.1458 138.625 57.8125 138.646 56.6875 138.688V136.375C57.9375 136.375 58.9375 136.312 59.6875 136.188C60.4792 136.021 61.1042 135.729 61.5625 135.312C61.9792 134.854 62.2708 134.208 62.4375 133.375C62.6042 132.542 62.6875 131.417 62.6875 130V99.625C62.6875 98.375 62.625 97.375 62.5 96.625C62.375 95.875 62.1042 95.3125 61.6875 94.9375C61.2708 94.5625 60.6875 94.3125 59.9375 94.1875C59.1875 94.0625 58.1667 94 56.875 94V91.75C57.75 91.7917 58.8958 91.8333 60.3125 91.875C61.7708 91.875 63.2708 91.8542 64.8125 91.8125C66.3542 91.8125 67.8333 91.8125 69.25 91.8125C70.6667 91.7708 71.8125 91.7292 72.6875 91.6875C75.0625 91.6875 77.25 92.0208 79.25 92.6875C81.25 93.3125 82.9583 94.2083 84.375 95.375C85.7917 96.5833 86.8958 98.0208 87.6875 99.6875C88.4792 101.312 88.875 103.146 88.875 105.188C88.875 107.229 88.5 109.083 87.75 110.75C87 112.375 86 113.771 84.75 114.938C83.5 116.146 82.0417 117.104 80.375 117.812C78.75 118.479 77.0208 118.833 75.1875 118.875C74.2708 118.917 73.1875 118.938 71.9375 118.938C70.6875 118.938 69.5 118.938 68.375 118.938V130ZM68.375 115.75C69.375 115.875 70.3958 115.958 71.4375 116C72.5208 116.042 73.4375 116.042 74.1875 116C76.6875 115.917 78.7292 114.979 80.3125 113.188C81.9375 111.354 82.75 108.833 82.75 105.625C82.75 103.75 82.4167 102.104 81.75 100.688C81.125 99.2708 80.3125 98.1042 79.3125 97.1875C78.2708 96.2292 77.0625 95.5208 75.6875 95.0625C74.3542 94.6042 72.9792 94.375 71.5625 94.375C71.1042 94.375 70.5417 94.4167 69.875 94.5C69.2083 94.5417 68.7083 94.5833 68.375 94.625V115.75ZM104.438 112.688H113.375C114.875 112.688 115.917 112.333 116.5 111.625C117.083 110.875 117.375 109.312 117.375 106.938H119.938V122.375H117.375C117.375 121 117.312 119.896 117.188 119.062C117.104 118.229 116.917 117.583 116.625 117.125C116.333 116.667 115.917 116.375 115.375 116.25C114.833 116.083 114.146 116 113.312 116H104.438V130.25C104.438 131.5 104.521 132.5 104.688 133.25C104.854 134 105.188 134.583 105.688 135C106.229 135.417 106.958 135.688 107.875 135.812C108.833 135.896 110.083 135.938 111.625 135.938H116.25C117.833 135.938 119.146 135.833 120.188 135.625C121.271 135.375 122.167 134.938 122.875 134.312C123.625 133.729 124.25 132.917 124.75 131.875C125.292 130.792 125.812 129.417 126.312 127.75H129.062C128.521 129.458 127.958 131.292 127.375 133.25C126.833 135.167 126.375 136.958 126 138.625C123.333 138.583 120.562 138.562 117.688 138.562C114.812 138.521 111.917 138.5 109 138.5C106.125 138.5 103.292 138.521 100.5 138.562C97.7083 138.562 95.0625 138.583 92.5625 138.625V136.375C93.8542 136.375 94.8958 136.292 95.6875 136.125C96.5208 135.958 97.1667 135.646 97.625 135.188C98.0417 134.771 98.3333 134.167 98.5 133.375C98.6667 132.542 98.75 131.5 98.75 130.25V99.625C98.75 98.375 98.6667 97.3958 98.5 96.6875C98.3333 95.9375 98.0417 95.375 97.625 95C97.1667 94.625 96.5208 94.375 95.6875 94.25C94.8958 94.125 93.8542 94.0625 92.5625 94.0625V91.75C94.9792 91.8333 97.5417 91.8958 100.25 91.9375C102.958 91.9375 105.688 91.9375 108.438 91.9375C111.188 91.9375 113.896 91.9375 116.562 91.9375C119.229 91.8958 121.729 91.8333 124.062 91.75V102.375H121.562C121.354 100.625 121.104 99.2292 120.812 98.1875C120.562 97.1458 120.125 96.3333 119.5 95.75C118.917 95.2083 118.104 94.8542 117.062 94.6875C116.021 94.4792 114.667 94.375 113 94.375H104.438V112.688ZM143.688 116.75V130.062C143.688 131.354 143.75 132.417 143.875 133.25C144 134.042 144.271 134.667 144.688 135.125C145.104 135.625 145.708 135.958 146.5 136.125C147.333 136.292 148.417 136.375 149.75 136.375V138.688C148.917 138.646 147.667 138.625 146 138.625C144.375 138.583 142.646 138.562 140.812 138.562C139.021 138.562 137.312 138.583 135.688 138.625C134.062 138.625 132.854 138.646 132.062 138.688V136.438C133.312 136.438 134.333 136.375 135.125 136.25C135.917 136.125 136.521 135.854 136.938 135.438C137.354 134.979 137.625 134.333 137.75 133.5C137.917 132.667 138 131.521 138 130.062V99.75C138 98.5 137.917 97.5 137.75 96.75C137.583 96 137.292 95.4167 136.875 95C136.458 94.625 135.854 94.375 135.062 94.25C134.312 94.125 133.312 94.0417 132.062 94V91.6875C133.062 91.7292 134.375 91.7708 136 91.8125C137.625 91.8125 139.312 91.8125 141.062 91.8125C142.854 91.8125 144.583 91.8125 146.25 91.8125C147.958 91.7708 149.375 91.7292 150.5 91.6875C153.458 91.6875 155.896 92.1042 157.812 92.9375C159.729 93.7292 161.229 94.7292 162.312 95.9375C163.396 97.1458 164.146 98.4583 164.562 99.875C165.021 101.25 165.25 102.521 165.25 103.688C165.25 105.188 164.979 106.583 164.438 107.875C163.938 109.167 163.271 110.312 162.438 111.312C161.604 112.312 160.646 113.167 159.562 113.875C158.479 114.583 157.354 115.104 156.188 115.438C156.938 116.771 157.812 118.229 158.812 119.812C159.854 121.354 160.917 122.875 162 124.375C163.042 125.917 164.062 127.354 165.062 128.688C166.104 130.021 167.021 131.146 167.812 132.062C168.688 133.188 169.729 134.188 170.938 135.062C172.146 135.938 173.625 136.375 175.375 136.375V138.688C173.875 138.604 172.167 138.562 170.25 138.562C168.333 138.562 166.708 138.604 165.375 138.688C164.208 137.146 162.979 135.438 161.688 133.562C160.396 131.688 159.083 129.771 157.75 127.812C156.458 125.854 155.188 123.917 153.938 122C152.688 120.083 151.562 118.333 150.562 116.75H143.688ZM143.688 113.812C143.688 113.812 143.833 113.833 144.125 113.875C144.417 113.875 144.75 113.875 145.125 113.875C145.542 113.917 145.958 113.938 146.375 113.938C146.833 113.938 147.229 113.938 147.562 113.938C149.688 113.938 151.479 113.646 152.938 113.062C154.438 112.479 155.646 111.729 156.562 110.812C157.479 109.854 158.125 108.812 158.5 107.688C158.917 106.521 159.125 105.354 159.125 104.188C159.125 101.396 158.292 99.0625 156.625 97.1875C155 95.3125 152.125 94.375 148 94.375C147.042 94.375 146.229 94.3958 145.562 94.4375C144.938 94.4375 144.312 94.4792 143.688 94.5625V113.812ZM183.75 99.6875C183.75 98.3958 183.667 97.375 183.5 96.625C183.375 95.875 183.083 95.3125 182.625 94.9375C182.208 94.5625 181.604 94.3333 180.812 94.25C180.021 94.125 179 94.0417 177.75 94V91.625C178.5 91.7083 179.688 91.75 181.312 91.75C182.938 91.75 184.646 91.75 186.438 91.75C188.271 91.75 190 91.75 191.625 91.75C193.292 91.7083 194.542 91.6667 195.375 91.625V94C194.083 94.0417 193.042 94.125 192.25 94.25C191.458 94.3333 190.854 94.5625 190.438 94.9375C190.021 95.3125 189.75 95.875 189.625 96.625C189.5 97.375 189.438 98.3958 189.438 99.6875V130.062C189.438 131.396 189.5 132.479 189.625 133.312C189.792 134.104 190.083 134.729 190.5 135.188C190.958 135.646 191.562 135.958 192.312 136.125C193.104 136.292 194.125 136.375 195.375 136.375V138.688C194.542 138.688 193.312 138.688 191.688 138.688C190.062 138.646 188.354 138.625 186.562 138.625C184.771 138.625 183.042 138.625 181.375 138.625C179.75 138.625 178.542 138.646 177.75 138.688V136.375C178.958 136.375 179.958 136.292 180.75 136.125C181.542 135.958 182.146 135.646 182.562 135.188C183.021 134.729 183.333 134.104 183.5 133.312C183.667 132.479 183.75 131.396 183.75 130.062V99.6875ZM199.438 127.062H202.125C202.375 128.354 202.708 129.604 203.125 130.812C203.583 132.021 204.167 133.083 204.875 134C205.583 134.917 206.458 135.646 207.5 136.188C208.542 136.729 209.812 137 211.312 137C214.188 137 216.542 136.188 218.375 134.562C220.208 132.938 221.125 130.896 221.125 128.438C221.125 126.979 220.854 125.729 220.312 124.688C219.771 123.604 219.062 122.646 218.188 121.812C217.312 121.021 216.312 120.292 215.188 119.625C214.062 118.958 212.896 118.271 211.688 117.562C210.438 116.896 209.167 116.188 207.875 115.438C206.583 114.646 205.417 113.729 204.375 112.688C203.333 111.604 202.479 110.375 201.812 109C201.146 107.583 200.812 105.917 200.812 104C200.812 101.75 201.167 99.7917 201.875 98.125C202.625 96.4583 203.646 95.0625 204.938 93.9375C206.188 92.8542 207.688 92.0417 209.438 91.5C211.188 90.9167 213.062 90.625 215.062 90.625C215.812 90.625 216.521 90.6667 217.188 90.75C217.854 90.8333 218.5 90.9167 219.125 91C219.75 91.0833 220.375 91.1875 221 91.3125C221.625 91.4375 222.292 91.5417 223 91.625L224.188 100.75H221.5C221.125 98.2917 220.354 96.4583 219.188 95.25C218.062 94.0417 216.375 93.4375 214.125 93.4375C211.25 93.4375 209.083 94.2292 207.625 95.8125C206.208 97.3958 205.5 99.3333 205.5 101.625C205.5 103.083 205.812 104.396 206.438 105.562C207.062 106.688 207.875 107.708 208.875 108.625C209.875 109.583 211 110.438 212.25 111.188C213.542 111.938 214.854 112.625 216.188 113.25C217.438 113.917 218.688 114.625 219.938 115.375C221.188 116.083 222.292 116.917 223.25 117.875C224.25 118.833 225.042 119.958 225.625 121.25C226.25 122.542 226.562 124.083 226.562 125.875C226.562 128.167 226.104 130.188 225.188 131.938C224.271 133.646 223.083 135.062 221.625 136.188C220.167 137.354 218.5 138.229 216.625 138.812C214.75 139.396 212.854 139.688 210.938 139.688C209.021 139.688 207.271 139.521 205.688 139.188C204.146 138.854 202.562 138.312 200.938 137.562L199.438 127.062ZM237.438 140.875C236.812 141.042 236.208 141.021 235.625 140.812C235.042 140.646 234.521 140.354 234.062 139.938C233.646 139.562 233.292 139.104 233 138.562C232.75 138.021 232.625 137.479 232.625 136.938C232.625 135.854 233.021 134.875 233.812 134C234.646 133.125 235.708 132.688 237 132.688C238.583 132.688 239.792 133.271 240.625 134.438C241.5 135.562 241.938 136.979 241.938 138.688C241.938 141.021 241.312 143.083 240.062 144.875C238.812 146.708 236.958 148.042 234.5 148.875L233.312 147.188C234.812 146.604 235.979 145.812 236.812 144.812C237.646 143.812 238.062 142.667 238.062 141.375C238.062 140.875 237.854 140.708 237.438 140.875ZM254.188 99.6875C254.188 98.3958 254.104 97.375 253.938 96.625C253.812 95.875 253.521 95.3125 253.062 94.9375C252.646 94.5625 252.042 94.3333 251.25 94.25C250.458 94.125 249.438 94.0417 248.188 94V91.625C248.938 91.7083 250.125 91.75 251.75 91.75C253.375 91.75 255.083 91.75 256.875 91.75C258.708 91.75 260.438 91.75 262.062 91.75C263.729 91.7083 264.979 91.6667 265.812 91.625V94C264.521 94.0417 263.479 94.125 262.688 94.25C261.896 94.3333 261.292 94.5625 260.875 94.9375C260.458 95.3125 260.188 95.875 260.062 96.625C259.938 97.375 259.875 98.3958 259.875 99.6875V130.062C259.875 131.396 259.938 132.479 260.062 133.312C260.229 134.104 260.521 134.729 260.938 135.188C261.396 135.646 262 135.958 262.75 136.125C263.542 136.292 264.562 136.375 265.812 136.375V138.688C264.979 138.688 263.75 138.688 262.125 138.688C260.5 138.646 258.792 138.625 257 138.625C255.208 138.625 253.479 138.625 251.812 138.625C250.188 138.625 248.979 138.646 248.188 138.688V136.375C249.396 136.375 250.396 136.292 251.188 136.125C251.979 135.958 252.583 135.646 253 135.188C253.458 134.729 253.771 134.104 253.938 133.312C254.104 132.479 254.188 131.396 254.188 130.062V99.6875ZM314.188 139.312H311.312L279.875 100.375V130.062C279.875 131.521 279.938 132.667 280.062 133.5C280.229 134.333 280.542 134.958 281 135.375C281.417 135.833 282.021 136.125 282.812 136.25C283.604 136.333 284.646 136.375 285.938 136.375V138.625C284.896 138.625 283.625 138.625 282.125 138.625C280.667 138.583 279.146 138.562 277.562 138.562C275.979 138.562 274.438 138.583 272.938 138.625C271.479 138.625 270.25 138.646 269.25 138.688V136.375C270.625 136.375 271.75 136.312 272.625 136.188C273.542 136.062 274.25 135.792 274.75 135.375C275.292 134.917 275.667 134.292 275.875 133.5C276.083 132.667 276.188 131.542 276.188 130.125V100C276.188 97.625 275.583 96.0417 274.375 95.25C273.167 94.4167 271.083 94 268.125 94V91.6875C268.625 91.7708 269.375 91.8125 270.375 91.8125C271.375 91.8125 272.417 91.8125 273.5 91.8125C274.583 91.8125 275.604 91.8125 276.562 91.8125C277.521 91.7708 278.229 91.7292 278.688 91.6875L310.375 130V99.9375C310.375 98.6875 310.292 97.6875 310.125 96.9375C310 96.1458 309.708 95.5417 309.25 95.125C308.833 94.7083 308.208 94.4375 307.375 94.3125C306.583 94.1458 305.521 94.0417 304.188 94V91.625C304.979 91.6667 306.125 91.7083 307.625 91.75C309.125 91.75 310.688 91.75 312.312 91.75C313.938 91.75 315.479 91.75 316.938 91.75C318.438 91.7083 319.562 91.6667 320.312 91.625V94C318.896 94 317.771 94.0625 316.938 94.1875C316.146 94.3125 315.542 94.5833 315.125 95C314.708 95.375 314.438 95.9583 314.312 96.75C314.229 97.5417 314.188 98.6042 314.188 99.9375V139.312ZM365.375 104.375H363.062C362.438 100.542 361.042 97.7708 358.875 96.0625C356.708 94.3125 353.729 93.4375 349.938 93.4375C347.229 93.4375 344.729 93.9583 342.438 95C340.146 96 338.146 97.4167 336.438 99.25C334.771 101.083 333.458 103.292 332.5 105.875C331.542 108.417 331.062 111.229 331.062 114.312C331.062 117.729 331.583 120.833 332.625 123.625C333.667 126.417 335.083 128.812 336.875 130.812C338.667 132.771 340.771 134.292 343.188 135.375C345.646 136.458 348.25 137 351 137C354.375 137 357.062 135.938 359.062 133.812C361.062 131.646 362.375 128.917 363 125.625H365.562L363.812 136.312C363.104 136.771 362.188 137.208 361.062 137.625C359.938 138.042 358.729 138.396 357.438 138.688C356.104 139.021 354.771 139.271 353.438 139.438C352.104 139.604 350.896 139.688 349.812 139.688C346.104 139.688 342.729 139.104 339.688 137.938C336.646 136.729 334.021 135.021 331.812 132.812C329.604 130.604 327.896 127.958 326.688 124.875C325.479 121.792 324.875 118.333 324.875 114.5C324.875 111.042 325.562 107.854 326.938 104.938C328.354 102.021 330.208 99.5 332.5 97.375C334.833 95.25 337.479 93.6042 340.438 92.4375C343.396 91.2292 346.458 90.625 349.625 90.625C352.25 90.625 354.854 91 357.438 91.75C360.062 92.4583 362.479 93.25 364.688 94.125L365.375 104.375Z" fill="black"/>
<line x1="0.977064" y1="165" x2="436.977" y2="164" stroke="#D9D233" stroke-width="20"/>
<line x1="0.977064" y1="75" x2="436.977" y2="74" stroke="#D9D233" stroke-width="20"/>
</svg>
