<?xml version="1.0" encoding="utf-8"?><svg xmlns="http://www.w3.org/2000/svg" xmlns:xlink="http://www.w3.org/1999/xlink" width="1280" height="606" preserveAspectRatio="xMidYMid" viewBox="0 0 1280 606" style="z-index:1;display:block;background-color:rgb(241, 242, 243);animation-play-state:paused" ><g transform="" style="animation-play-state:paused" ><linearGradient id="lg-0.07613239471178312" x1="0" x2="1" y1="0" y2="0" style="animation-play-state:paused" ><stop stop-color="#fdd73a" offset="0" style="animation-play-state:paused" ></stop>

  
<stop stop-color="#ffc500" offset="1" style="animation-play-state:paused" ></stop></linearGradient>
<path d="M0 0L0 580.0783081054688Q128 505.1526794433594 256 471.2743835449219T512 432.4545593261719T768 415.6481018066406T1024 365.7500305175781T1280 315.23944091796875L1280 0z" fill="url(#lg-0.07613239471178312)" opacity="0.4" style="opacity:0.4;animation-play-state:paused" ></path>
<path d="M0 0L0 541.1361694335938Q128 519.3999633789062 256 484.8648986816406T512 430.84906005859375T768 407.7698059082031T1024 346.76373291015625T1280 250.37985229492188L1280 0z" fill="url(#lg-0.07613239471178312)" opacity="0.4" style="opacity:0.4;animation-play-state:paused" ></path>
<path d="M0 0L0 594.3653564453125Q128 473.61798095703125 256 447.58331298828125T512 422.7461853027344T768 381.8341979980469T1024 307.80096435546875T1280 217.91831970214844L1280 0z" fill="url(#lg-0.07613239471178312)" opacity="0.4" style="opacity:0.4;animation-play-state:paused" ></path>
<path d="M0 0L0 581.2849731445312Q128 532.5551147460938 256 511.2225036621094T512 473.5850524902344T768 342.66119384765625T1024 344.2215270996094T1280 243.86842346191406L1280 0z" fill="url(#lg-0.07613239471178312)" opacity="0.4" style="opacity:0.4;animation-play-state:paused" ></path>
<path d="M0 0L0 533.1083374023438Q128 487.2445373535156 256 461.4853515625T512 449.82696533203125T768 363.66949462890625T1024 321.2164611816406T1280 270.7032165527344L1280 0z" fill="url(#lg-0.07613239471178312)" opacity="0.4" style="opacity:0.4;animation-play-state:paused" ></path></g></svg>